<?xml version="1.0" encoding="iso-8859-1"?>
<!-- Generator: Adobe Illustrator 16.0.0, SVG Export Plug-In . SVG Version: 6.00 Build 0)  -->
<!DOCTYPE svg PUBLIC "-//W3C//DTD SVG 1.1//EN" "http://www.w3.org/Graphics/SVG/1.1/DTD/svg11.dtd">
<svg xmlns="http://www.w3.org/2000/svg" xmlns:xlink="http://www.w3.org/1999/xlink" version="1.1" id="Capa_1" x="0px" y="0px" width="512px" height="512px" viewBox="0 0 81.602 81.602" style="enable-background:new 0 0 81.602 81.602;" xml:space="preserve">
<g>
	<g>
		<path d="M72.216,71.816V0.5c0-0.276-0.224-0.5-0.5-0.5h-1.365h-54.94c-3.325,0-6.03,2.728-6.03,6.082V75.52    c0,0.869,0.185,1.694,0.513,2.443c0.596,2.094,2.502,3.639,4.788,3.639h0.729h44.94h2.831c0.245,0,0.48-0.039,0.717-0.072    c0.035,0.009,0.068,0.021,0.106,0.021c0.022,0,0.045,0,0.067,0c2.33,0,4.215-0.732,5.605-2.181    C72.404,76.529,72.224,71.986,72.216,71.816z M53.801,41.8h-8.25v20.5h-9.5V41.8h-8.25v-9.5h8.25v-7h9.5v7h8.25V41.8z     M63.182,4.933h-52.66C11.041,2.685,13.03,1,15.411,1h54.94c0.115,0,0.208,0.004,0.281,0.01c-0.179,0.22-0.483,0.529-0.728,0.774    c-1.064,1.077-2.523,2.551-2.523,4.297v1.153C66.49,5.853,64.947,4.933,63.182,4.933z M68.955,78.678    c-0.619,0.645-1.362,1.121-2.219,1.434c0.852-0.861,1.379-2.034,1.426-3.33c0.141-0.405,0.218-0.827,0.218-1.264V6.082    c0-1.335,1.292-2.641,2.235-3.594c0.227-0.229,0.428-0.435,0.6-0.627v69.98C71.218,71.883,71.389,76.143,68.955,78.678z" fill="#933EC5"/>
		<path d="M44.051,26.8h-6.5v7h-8.25v6.5h8.25v20.5h6.5V40.3h8.25v-6.5h-8.25V26.8z M42.551,59.3h-3.5V38.8h-8.25v-3.5h8.25v-7h3.5    v7h8.25v3.5h-8.25" fill="#933EC5"/>
	</g>
</g>
<g>
</g>
<g>
</g>
<g>
</g>
<g>
</g>
<g>
</g>
<g>
</g>
<g>
</g>
<g>
</g>
<g>
</g>
<g>
</g>
<g>
</g>
<g>
</g>
<g>
</g>
<g>
</g>
<g>
</g>
</svg>
