<?xml version="1.0" encoding="iso-8859-1"?>
<!-- Generator: Adobe Illustrator 19.1.0, SVG Export Plug-In . SVG Version: 6.00 Build 0)  -->
<svg xmlns="http://www.w3.org/2000/svg" xmlns:xlink="http://www.w3.org/1999/xlink" version="1.1" id="Capa_1" x="0px" y="0px" viewBox="0 0 63 63" style="enable-background:new 0 0 63 63;" xml:space="preserve" width="512px" height="512px">
<g>
	<g>
		<g id="group-39svg">
			<path id="path-1_33_" d="M63,53.5c0,5.247-4.253,9.5-9.5,9.5h-44C4.253,63,0,58.747,0,53.5v-44C0,4.253,4.253,0,9.5,0h44     C58.747,0,63,4.253,63,9.5V53.5z M60,9.5C60,5.91,57.09,3,53.5,3h-44C5.91,3,3,5.91,3,9.5v44C3,57.09,5.91,60,9.5,60h44     c3.59,0,6.5-2.91,6.5-6.5V9.5z" fill="#006DF0"/>
			<path id="path-2_26_" d="M32.058,46.218c-1.074,0-2.087-0.423-2.854-1.19L16.459,32.283c-0.889-0.888-1.309-2.152-1.122-3.38     c0.183-1.21,0.906-2.229,1.984-2.797c1.475-0.776,3.408-0.463,4.594,0.721l9.778,9.779c0.23,0.227,0.356,0.12,0.439,0.04     l9.486-9.487c1.18-1.18,3.11-1.442,4.599-0.627c1.117,0.613,1.857,1.68,2.036,2.929c0.174,1.213-0.219,2.399-1.075,3.256     L34.813,45.082C34.08,45.814,33.102,46.218,32.058,46.218z M19.116,28.663c-0.14,0-0.272,0.031-0.391,0.095     c-0.315,0.166-0.399,0.443-0.422,0.595c-0.044,0.293,0.056,0.588,0.277,0.809l12.746,12.745c0.38,0.38,1.016,0.404,1.366,0.053     l12.365-12.364c0.25-0.25,0.249-0.553,0.226-0.711c-0.044-0.306-0.227-0.568-0.504-0.719c-0.353-0.195-0.783-0.143-1.041,0.115     l-9.484,9.485c-1.24,1.24-3.421,1.221-4.682-0.038l-9.777-9.779C19.612,28.768,19.365,28.663,19.116,28.663z" fill="#006DF0"/>
		</g>
	</g>
	<g>
	</g>
	<g>
	</g>
	<g>
	</g>
	<g>
	</g>
	<g>
	</g>
	<g>
	</g>
	<g>
	</g>
	<g>
	</g>
	<g>
	</g>
	<g>
	</g>
	<g>
	</g>
	<g>
	</g>
	<g>
	</g>
	<g>
	</g>
	<g>
	</g>
</g>
<g>
</g>
<g>
</g>
<g>
</g>
<g>
</g>
<g>
</g>
<g>
</g>
<g>
</g>
<g>
</g>
<g>
</g>
<g>
</g>
<g>
</g>
<g>
</g>
<g>
</g>
<g>
</g>
<g>
</g>
</svg>
