<?xml version="1.0" encoding="iso-8859-1"?>
<!-- Generator: Adobe Illustrator 19.1.0, SVG Export Plug-In . SVG Version: 6.00 Build 0)  -->
<svg xmlns="http://www.w3.org/2000/svg" xmlns:xlink="http://www.w3.org/1999/xlink" version="1.1" id="Capa_1" x="0px" y="0px" viewBox="0 0 63 63" style="enable-background:new 0 0 63 63;" xml:space="preserve" width="512px" height="512px">
<g>
	<g>
		<g id="group-40svg">
			<path id="path-1_35_" d="M63,53.5c0,5.247-4.253,9.5-9.5,9.5h-44C4.253,63,0,58.747,0,53.5v-44C0,4.253,4.253,0,9.5,0h44     C58.747,0,63,4.253,63,9.5V53.5z M60,9.5C60,5.91,57.09,3,53.5,3h-44C5.91,3,3,5.91,3,9.5v44C3,57.09,5.91,60,9.5,60h44     c3.59,0,6.5-2.91,6.5-6.5V9.5z" fill="#933EC5"/>
			<path id="path-2_27_" d="M29.972,48.597c-1.428,0-2.723-0.778-3.382-2.029c-0.8-1.518-0.509-3.363,0.721-4.593l9.779-9.779     c0.13-0.13,0.147-0.331,0.039-0.439l-9.486-9.486c-1.197-1.198-1.455-3.088-0.627-4.598c0.703-1.282,2.037-2.076,3.483-2.076     c1.023,0,1.982,0.396,2.701,1.115l12.365,12.364c0.748,0.748,1.152,1.748,1.135,2.816c-0.015,1.05-0.437,2.043-1.187,2.793     L32.767,47.431C32.015,48.183,31.022,48.597,29.972,48.597z M30.499,18.597c-0.274,0-0.643,0.134-0.85,0.512     c-0.197,0.36-0.149,0.777,0.116,1.042l9.485,9.485c1.28,1.28,1.263,3.38-0.039,4.681l-9.778,9.778     c-0.291,0.291-0.371,0.731-0.192,1.07c0.206,0.391,0.579,0.432,0.731,0.432c0.249,0,0.488-0.102,0.673-0.287l12.747-12.747     c0.195-0.195,0.305-0.45,0.309-0.716c0.004-0.249-0.088-0.481-0.257-0.65L31.079,18.833     C30.884,18.638,30.656,18.597,30.499,18.597z" fill="#933EC5"/>
		</g>
	</g>
	<g>
	</g>
	<g>
	</g>
	<g>
	</g>
	<g>
	</g>
	<g>
	</g>
	<g>
	</g>
	<g>
	</g>
	<g>
	</g>
	<g>
	</g>
	<g>
	</g>
	<g>
	</g>
	<g>
	</g>
	<g>
	</g>
	<g>
	</g>
	<g>
	</g>
</g>
<g>
</g>
<g>
</g>
<g>
</g>
<g>
</g>
<g>
</g>
<g>
</g>
<g>
</g>
<g>
</g>
<g>
</g>
<g>
</g>
<g>
</g>
<g>
</g>
<g>
</g>
<g>
</g>
<g>
</g>
</svg>
