<?xml version="1.0" encoding="iso-8859-1"?>
<!-- Generator: Adobe Illustrator 19.1.0, SVG Export Plug-In . SVG Version: 6.00 Build 0)  -->
<svg xmlns="http://www.w3.org/2000/svg" xmlns:xlink="http://www.w3.org/1999/xlink" version="1.1" id="Capa_1" x="0px" y="0px" viewBox="0 0 63 63" style="enable-background:new 0 0 63 63;" xml:space="preserve" width="512px" height="512px">
<g>
	<g>
		<g id="group-41svg">
			<path id="path-1_36_" d="M63,53.5c0,5.247-4.253,9.5-9.5,9.5h-44C4.253,63,0,58.747,0,53.5v-44C0,4.253,4.253,0,9.5,0h44     C58.747,0,63,4.253,63,9.5V53.5z M60,9.5C60,5.91,57.09,3,53.5,3h-44C5.91,3,3,5.91,3,9.5v44C3,57.09,5.91,60,9.5,60h44     c3.59,0,6.5-2.91,6.5-6.5V9.5z" fill="#933EC5"/>
			<path id="path-2_28_" d="M38.962,48.597L38.962,48.597c-1.051,0-2.043-0.414-2.795-1.166L23.422,34.685     c-0.75-0.75-1.172-1.742-1.189-2.792c-0.015-1.069,0.388-2.07,1.136-2.818l12.364-12.363c0.719-0.719,1.678-1.115,2.702-1.115     c1.446,0,2.78,0.794,3.48,2.071c0.832,1.515,0.574,3.405-0.624,4.603l-9.485,9.486c-0.049,0.049-0.074,0.112-0.073,0.189     c0.001,0.053,0.017,0.156,0.111,0.249l9.778,9.779c1.231,1.23,1.522,3.075,0.725,4.589     C41.685,47.819,40.389,48.597,38.962,48.597z M38.435,18.597c-0.158,0-0.385,0.041-0.581,0.236L25.49,31.197     c-0.17,0.17-0.261,0.401-0.257,0.65c0.004,0.266,0.115,0.521,0.31,0.716L38.288,45.31c0.186,0.185,0.425,0.287,0.674,0.287l0,0     c0.151,0,0.524-0.041,0.727-0.427c0.182-0.344,0.103-0.784-0.188-1.075l-9.777-9.778c-0.625-0.624-0.977-1.45-0.99-2.326     c-0.013-0.892,0.325-1.729,0.951-2.355l9.485-9.486c0.265-0.264,0.312-0.68,0.118-1.035     C39.077,18.731,38.709,18.597,38.435,18.597z" fill="#933EC5"/>
		</g>
	</g>
	<g>
	</g>
	<g>
	</g>
	<g>
	</g>
	<g>
	</g>
	<g>
	</g>
	<g>
	</g>
	<g>
	</g>
	<g>
	</g>
	<g>
	</g>
	<g>
	</g>
	<g>
	</g>
	<g>
	</g>
	<g>
	</g>
	<g>
	</g>
	<g>
	</g>
</g>
<g>
</g>
<g>
</g>
<g>
</g>
<g>
</g>
<g>
</g>
<g>
</g>
<g>
</g>
<g>
</g>
<g>
</g>
<g>
</g>
<g>
</g>
<g>
</g>
<g>
</g>
<g>
</g>
<g>
</g>
</svg>
