<?xml version="1.0" encoding="iso-8859-1"?>
<!-- Generator: Adobe Illustrator 19.1.0, SVG Export Plug-In . SVG Version: 6.00 Build 0)  -->
<svg xmlns="http://www.w3.org/2000/svg" xmlns:xlink="http://www.w3.org/1999/xlink" version="1.1" id="Capa_1" x="0px" y="0px" viewBox="0 0 63 63" style="enable-background:new 0 0 63 63;" xml:space="preserve" width="512px" height="512px">
<g>
	<g>
		<g id="group-38svg">
			<path id="path-1_32_" d="M63,53.5c0,5.247-4.253,9.5-9.5,9.5h-44C4.253,63,0,58.747,0,53.5v-44C0,4.253,4.253,0,9.5,0h44     C58.747,0,63,4.253,63,9.5V53.5z M60,9.5C60,5.91,57.09,3,53.5,3h-44C5.91,3,3,5.91,3,9.5v44C3,57.09,5.91,60,9.5,60h44     c3.59,0,6.5-2.91,6.5-6.5V9.5z" fill="#006DF0"/>
			<path id="path-2_25_" d="M18.614,42.421c-0.604,0-1.205-0.144-1.74-0.416c-0.02-0.009-0.038-0.019-0.057-0.028     c-1.077-0.569-1.8-1.588-1.983-2.799c-0.186-1.227,0.234-2.49,1.122-3.377l12.746-12.746c0.766-0.767,1.779-1.189,2.853-1.189     c1.045,0,2.023,0.404,2.755,1.136l12.366,12.365c0.856,0.856,1.248,2.042,1.075,3.255c-0.178,1.25-0.918,2.316-2.03,2.927     c-0.587,0.321-1.243,0.49-1.9,0.49l0,0c-1.026,0-1.987-0.396-2.706-1.116l-9.484-9.485c-0.083-0.083-0.211-0.186-0.44,0.04     l-9.778,9.777C20.672,41.996,19.652,42.421,18.614,42.421z M18.191,39.31c0.011,0.004,0.022,0.01,0.033,0.015     c0.33,0.176,0.783,0.094,1.068-0.191l9.778-9.778c1.26-1.259,3.442-1.28,4.682-0.039l9.485,9.486     c0.256,0.256,0.692,0.307,1.034,0.118c0.283-0.154,0.466-0.417,0.51-0.723c0.023-0.158,0.024-0.46-0.226-0.709L32.189,25.123     c-0.35-0.349-0.988-0.325-1.366,0.053L18.077,37.922c-0.221,0.221-0.321,0.515-0.277,0.807     C17.822,38.877,17.903,39.145,18.191,39.31z" fill="#006DF0"/>
		</g>
	</g>
	<g>
	</g>
	<g>
	</g>
	<g>
	</g>
	<g>
	</g>
	<g>
	</g>
	<g>
	</g>
	<g>
	</g>
	<g>
	</g>
	<g>
	</g>
	<g>
	</g>
	<g>
	</g>
	<g>
	</g>
	<g>
	</g>
	<g>
	</g>
	<g>
	</g>
</g>
<g>
</g>
<g>
</g>
<g>
</g>
<g>
</g>
<g>
</g>
<g>
</g>
<g>
</g>
<g>
</g>
<g>
</g>
<g>
</g>
<g>
</g>
<g>
</g>
<g>
</g>
<g>
</g>
<g>
</g>
</svg>
